<?xml version="1.0" standalone="no"?>
<!DOCTYPE svg PUBLIC "-//W3C//DTD SVG 1.1//EN" "http://www.w3.org/Graphics/SVG/1.1/DTD/svg11.dtd">
<svg t="1720239872755" class="icon" viewBox="0 0 1024 1024" version="1.1" xmlns="http://www.w3.org/2000/svg" p-id="51559" xmlns:xlink="http://www.w3.org/1999/xlink" width="16" height="16"><path d="M1002.01 295.18l-273.2-273.2c-3.16-3.16-6.95-5.67-11.15-7.4-0.17-0.07-0.35-0.09-0.53-0.16-3.85-1.51-8.02-2.41-12.41-2.42h-0.03c-4.39 0-8.56 0.9-12.42 2.42-0.17 0.07-0.35 0.09-0.52 0.16a34.146 34.146 0 0 0-18.55 18.55c-0.07 0.17-0.09 0.34-0.16 0.51-1.52 3.86-2.42 8.04-2.42 12.44V977.9c0 18.83 15.26 34.09 34.09 34.09 18.83 0 34.09-15.26 34.09-34.09V128.39l215 215c13.31 13.31 34.9 13.31 48.21 0 13.32-13.31 13.32-34.89 0-48.21zM353.38 977.91V46.09c0-18.83-15.26-34.09-34.09-34.09-18.83 0-34.09 15.26-34.09 34.09v849.52l-215-215c-13.31-13.31-34.9-13.31-48.21 0-13.31 13.31-13.31 34.9 0 48.21l273.2 273.2c3.16 3.16 6.95 5.67 11.15 7.4 0.17 0.07 0.34 0.09 0.51 0.16 3.86 1.52 8.04 2.42 12.44 2.42s8.58-0.9 12.44-2.42c0.17-0.07 0.34-0.09 0.51-0.16 8.4-3.46 15.1-10.16 18.55-18.55 0.07-0.17 0.09-0.34 0.16-0.51 1.53-3.87 2.43-8.05 2.43-12.45z" fill="#A0A0A0" p-id="51560"></path></svg>